<svg preserveAspectRatio="none" overflow="visible" style="display: block;" width="14.3333" height="14.3333" viewBox="0 0 14.3333 14.3333" fill="none" xmlns="http://www.w3.org/2000/svg">
<g id="elements">
<path id="Rectangle 2316" d="M10.2034 1.83333C10.5119 2.11923 10.8614 2.47671 11.2808 2.90575C12.5381 4.19172 13.1667 4.83471 13.1667 5.63371C13.1667 6.43271 12.5381 7.0757 11.2808 8.36167L7.01371 12.7264C6.85262 12.8912 6.68059 13.0379 6.5 13.1667" stroke="white" stroke-opacity="0.7" stroke-linecap="round"/>
<path id="Rectangle 2317" d="M0.500001 10.2436C0.500001 12.2261 2.15821 13.8333 4.2037 13.8333H10.1296C11.8756 13.8333 12.7485 13.8333 13.2909 13.3076C13.8333 12.7819 13.8333 11.9358 13.8333 10.2436C13.8333 9.83853 13.8333 9.48197 13.8259 9.16667" stroke="white" stroke-opacity="0.7" stroke-linecap="round"/>
<path id="Rectangle 2315" d="M0.500001 4.2037C0.500001 2.45776 0.500001 1.58479 1.03697 1.0424C1.57394 0.500001 2.43818 0.500001 4.16667 0.500001C5.89515 0.500001 6.75939 0.500001 7.29636 1.0424C7.83333 1.58479 7.83333 2.45776 7.83333 4.2037V10.1296C7.83333 12.1751 6.19171 13.8333 4.16667 13.8333C2.14162 13.8333 0.500001 12.1751 0.500001 10.1296V4.2037Z" stroke="white" stroke-opacity="0.7"/>
<path id="Vector" d="M4.16667 10.8333H4.17266" stroke="white" stroke-opacity="0.7" stroke-width="1.33333" stroke-linecap="round" stroke-linejoin="round"/>
</g>
</svg>
